<?xml version="1.0" standalone="no"?><!DOCTYPE svg PUBLIC "-//W3C//DTD SVG 1.1//EN" "http://www.w3.org/Graphics/SVG/1.1/DTD/svg11.dtd"><svg t="1647067421142" class="icon" viewBox="0 0 1024 1024" version="1.1" xmlns="http://www.w3.org/2000/svg" p-id="8284" xmlns:xlink="http://www.w3.org/1999/xlink" width="200" height="200"><defs><style type="text/css"></style></defs><path d="M844 64.3H180a4 4 0 0 0-4 4v854.5c0 31.4 34.6 50.6 61.2 33.9L512 784.6l274.8 172.1c26.6 16.7 61.2-2.5 61.2-33.9V68.3a4 4 0 0 0-4-4zM462.4 581.4a4.2 4.2 0 0 1-5.7 0L289.1 414.1a4.2 4.2 0 0 1 0-5.7l45.2-45.1a4 4 0 0 1 5.7 0l116.7 116.5a4.2 4.2 0 0 0 5.7 0l222.8-222.4 50.9 50.8z" p-id="8285"></path></svg>